<?xml version="1.0" encoding="UTF-8"?>
<svg id="Camada_1" data-name="Camada 1" xmlns="http://www.w3.org/2000/svg" xmlns:xlink="http://www.w3.org/1999/xlink" viewBox="0 0 540.27 314.78">
  <defs>
    <style>
      .cls-1 {
        letter-spacing: -.06em;
      }

      .cls-2, .cls-3 {
        stroke: #000;
        stroke-miterlimit: 10;
      }

      .cls-2, .cls-4 {
        fill: none;
      }

      .cls-5 {
        fill: #e80000;
        font-family: FranklinGothic-Heavy, 'Franklin Gothic Heavy';
        font-size: 50.37px;
        font-weight: 800;
      }

      .cls-6 {
        clip-path: url(#clippath-1);
      }

      .cls-7 {
        clip-path: url(#clippath);
      }

      .cls-8 {
        letter-spacing: -.04em;
      }

      .cls-9 {
        letter-spacing: -.04em;
      }

      .cls-10 {
        letter-spacing: -.05em;
      }
    </style>
    <clipPath id="clippath">
      <polygon class="cls-4" points="400.27 0 540.27 75 532.27 104 302.5 118.28 400.27 0"/>
    </clipPath>
    <clipPath id="clippath-1">
      <polygon class="cls-4" points="140 314.78 0 239.78 8 210.78 237.77 196.5 140 314.78"/>
    </clipPath>
  </defs>
  <text class="cls-5" transform="translate(12.31 173.89) scale(.95) skewX(-17.71)"><tspan class="cls-8" x="0" y="0">LEGIÃO </tspan><tspan class="cls-1" x="171.75" y="0">D</tspan><tspan class="cls-9" x="202.74" y="0">A VE</tspan><tspan class="cls-10" x="300.47" y="0">L</tspan><tspan class="cls-9" x="325.03" y="0">OCI</tspan><tspan class="cls-1" x="401.29" y="0">D</tspan><tspan class="cls-9" x="432.28" y="0">ADE</tspan></text>
  <polygon points="532.27 103 29.27 126 523.08 126 532.27 103"/>
  <polygon points="8.27 211.5 501.27 188.5 17.27 188.5 8.27 211.5"/>
  <g class="cls-7">
    <g>
      <path class="cls-3" d="m401.64,51.12c-3.34-6.21-5.21-14.33-5.11-25.01,3.91-5.1,7.82-10.2,11.73-15.3-.09,10.68,1.78,18.8,5.11,25.01-3.91,5.1-7.82,10.2-11.73,15.3Z"/>
      <path class="cls-3" d="m354.7,112.3c-3.34-6.21-5.21-14.33-5.11-25.01,3.91-5.1,7.82-10.2,11.73-15.3-.09,10.68,1.78,18.8,5.11,25.01-3.91,5.1-7.82,10.2-11.73,15.3Z"/>
      <path class="cls-2" d="m389.9,66.41c-3.34-6.21-5.21-14.33-5.11-25.01,3.91-5.1,7.82-10.2,11.73-15.3-.09,10.68,1.78,18.8,5.11,25.01-3.91,5.1-7.82,10.2-11.73,15.3Z"/>
      <path class="cls-3" d="m378.17,81.71c-3.34-6.21-5.21-14.33-5.11-25.01,3.91-5.1,7.82-10.2,11.73-15.3-.09,10.68,1.78,18.8,5.11,25.01-3.91,5.1-7.82,10.2-11.73,15.3Z"/>
      <path class="cls-2" d="m366.43,97c-3.34-6.21-5.21-14.33-5.11-25.01,3.91-5.1,7.82-10.2,11.73-15.3-.09,10.68,1.78,18.8,5.11,25.01-3.91,5.1-7.82,10.2-11.73,15.3Z"/>
      <path class="cls-2" d="m415.57,64.62c-5.79-3.01-10.6-7.3-13.94-13.51,3.91-5.1,7.82-10.2,11.73-15.3,3.34,6.21,8.15,10.49,13.94,13.51-3.91,5.1-7.82,10.2-11.73,15.3Z"/>
      <path class="cls-2" d="m368.64,125.8c-5.79-3.01-10.6-7.3-13.94-13.51,3.91-5.1,7.82-10.2,11.73-15.3,3.34,6.21,8.15,10.49,13.94,13.51-3.91,5.1-7.82,10.2-11.73,15.3Z"/>
      <path class="cls-3" d="m403.84,79.92c-5.79-3.01-10.6-7.3-13.94-13.51,3.91-5.1,7.82-10.2,11.73-15.3,3.34,6.21,8.15,10.49,13.94,13.51-3.91,5.1-7.82,10.2-11.73,15.3Z"/>
      <path class="cls-2" d="m392.11,95.21c-5.79-3.01-10.6-7.3-13.94-13.51,3.91-5.1,7.82-10.2,11.73-15.3,3.34,6.21,8.15,10.49,13.94,13.51-3.91,5.1-7.82,10.2-11.73,15.3Z"/>
      <path class="cls-3" d="m380.37,110.51c-5.79-3.01-10.6-7.3-13.94-13.51,3.91-5.1,7.82-10.2,11.73-15.3,3.34,6.21,8.15,10.49,13.94,13.51-3.91,5.1-7.82,10.2-11.73,15.3Z"/>
      <path class="cls-3" d="m435.39,70.46c-7.26-1.09-14.03-2.83-19.82-5.84,3.91-5.1,7.82-10.2,11.73-15.3,5.79,3.01,12.56,4.74,19.82,5.84-3.91,5.1-7.82,10.2-11.73,15.3Z"/>
      <path class="cls-3" d="m388.46,131.64c-7.26-1.09-14.03-2.83-19.82-5.84,3.91-5.1,7.82-10.2,11.73-15.3,5.79,3.01,12.56,4.74,19.82,5.84-3.91,5.1-7.82,10.2-11.73,15.3Z"/>
      <path class="cls-2" d="m423.66,85.76c-7.26-1.09-14.03-2.83-19.82-5.84,3.91-5.1,7.82-10.2,11.73-15.3,5.79,3.01,12.56,4.74,19.82,5.84-3.91,5.1-7.82,10.2-11.73,15.3Z"/>
      <path class="cls-3" d="m411.92,101.05c-7.26-1.09-14.03-2.83-19.82-5.84,3.91-5.1,7.82-10.2,11.73-15.3,5.79,3.01,12.56,4.74,19.82,5.84-3.91,5.1-7.82,10.2-11.73,15.3Z"/>
      <path class="cls-2" d="m400.19,116.35c-7.26-1.09-14.03-2.83-19.82-5.84,3.91-5.1,7.82-10.2,11.73-15.3,5.79,3.01,12.56,4.74,19.82,5.84-3.91,5.1-7.82,10.2-11.73,15.3Z"/>
      <path class="cls-2" d="m458.15,72.47c-7.75-.46-15.5-.91-22.76-2,3.91-5.1,7.82-10.2,11.73-15.3,7.26,1.09,15.01,1.55,22.76,2-3.91,5.1-7.82,10.2-11.73,15.3Z"/>
      <path class="cls-2" d="m411.21,133.65c-7.75-.46-15.5-.91-22.76-2,3.91-5.1,7.82-10.2,11.73-15.3,7.26,1.09,15.01,1.55,22.76,2-3.91,5.1-7.82,10.2-11.73,15.3Z"/>
      <path class="cls-3" d="m446.42,87.76c-7.75-.46-15.5-.91-22.76-2,3.91-5.1,7.82-10.2,11.73-15.3,7.26,1.09,15.01,1.55,22.76,2-3.91,5.1-7.82,10.2-11.73,15.3Z"/>
      <path class="cls-2" d="m434.68,103.06c-7.75-.46-15.5-.91-22.76-2,3.91-5.1,7.82-10.2,11.73-15.3,7.26,1.09,15.01,1.55,22.76,2-3.91,5.1-7.82,10.2-11.73,15.3Z"/>
      <path class="cls-3" d="m422.95,118.35c-7.75-.46-15.5-.91-22.76-2,3.91-5.1,7.82-10.2,11.73-15.3,7.26,1.09,15.01,1.55,22.76,2-3.91,5.1-7.82,10.2-11.73,15.3Z"/>
      <path class="cls-3" d="m480.91,74.47c-7.26-1.09-15.01-1.55-22.76-2,3.91-5.1,7.82-10.2,11.73-15.3,7.75.46,15.5.91,22.76,2-3.91,5.1-7.82,10.2-11.73,15.3Z"/>
      <path class="cls-3" d="m433.97,135.65c-7.26-1.09-15.01-1.55-22.76-2,3.91-5.1,7.82-10.2,11.73-15.3,7.75.46,15.5.91,22.76,2-3.91,5.1-7.82,10.2-11.73,15.3Z"/>
      <path class="cls-2" d="m469.18,89.77c-7.26-1.09-15.01-1.55-22.76-2,3.91-5.1,7.82-10.2,11.73-15.3,7.75.46,15.5.91,22.76,2-3.91,5.1-7.82,10.2-11.73,15.3Z"/>
      <path class="cls-3" d="m457.44,105.06c-7.26-1.09-15.01-1.55-22.76-2,3.91-5.1,7.82-10.2,11.73-15.3,7.75.46,15.5.91,22.76,2-3.91,5.1-7.82,10.2-11.73,15.3Z"/>
      <path class="cls-2" d="m445.71,120.36c-7.26-1.09-15.01-1.55-22.76-2,3.91-5.1,7.82-10.2,11.73-15.3,7.75.46,15.5.91,22.76,2-3.91,5.1-7.82,10.2-11.73,15.3Z"/>
      <path class="cls-2" d="m500.73,80.31c-5.79-3.01-12.56-4.74-19.82-5.84,3.91-5.1,7.82-10.2,11.73-15.3,7.26,1.09,14.03,2.83,19.82,5.84-3.91,5.1-7.82,10.2-11.73,15.3Z"/>
      <path class="cls-2" d="m453.79,141.49c-5.79-3.01-12.56-4.74-19.82-5.84,3.91-5.1,7.82-10.2,11.73-15.3,7.26,1.09,14.03,2.83,19.82,5.84-3.91,5.1-7.82,10.2-11.73,15.3Z"/>
      <path class="cls-3" d="m488.99,95.6c-5.79-3.01-12.56-4.74-19.82-5.84,3.91-5.1,7.82-10.2,11.73-15.3,7.26,1.09,14.03,2.83,19.82,5.84-3.91,5.1-7.82,10.2-11.73,15.3Z"/>
      <path class="cls-2" d="m477.26,110.9c-5.79-3.01-12.56-4.74-19.82-5.84,3.91-5.1,7.82-10.2,11.73-15.3,7.26,1.09,14.03,2.83,19.82,5.84-3.91,5.1-7.82,10.2-11.73,15.3Z"/>
      <path class="cls-3" d="m465.53,126.19c-5.79-3.01-12.56-4.74-19.82-5.84,3.91-5.1,7.82-10.2,11.73-15.3,7.26,1.09,14.03,2.83,19.82,5.84-3.91,5.1-7.82,10.2-11.73,15.3Z"/>
      <path class="cls-3" d="m514.66,93.81c-3.34-6.21-8.15-10.49-13.94-13.51,3.91-5.1,7.82-10.2,11.73-15.3,5.79,3.01,10.6,7.3,13.94,13.51-3.91,5.1-7.82,10.2-11.73,15.3Z"/>
      <path class="cls-3" d="m467.73,154.99c-3.34-6.21-8.15-10.49-13.94-13.51,3.91-5.1,7.82-10.2,11.73-15.3,5.79,3.01,10.6,7.3,13.94,13.51-3.91,5.1-7.82,10.2-11.73,15.3Z"/>
      <path class="cls-2" d="m502.93,109.11c-3.34-6.21-8.15-10.49-13.94-13.51,3.91-5.1,7.82-10.2,11.73-15.3,5.79,3.01,10.6,7.3,13.94,13.51-3.91,5.1-7.82,10.2-11.73,15.3Z"/>
      <path class="cls-3" d="m491.2,124.4c-3.34-6.21-8.15-10.49-13.94-13.51,3.91-5.1,7.82-10.2,11.73-15.3,5.79,3.01,10.6,7.3,13.94,13.51-3.91,5.1-7.82,10.2-11.73,15.3Z"/>
      <path class="cls-2" d="m479.46,139.7c-3.34-6.21-8.15-10.49-13.94-13.51,3.91-5.1,7.82-10.2,11.73-15.3,5.79,3.01,10.6,7.3,13.94,13.51-3.91,5.1-7.82,10.2-11.73,15.3Z"/>
      <path class="cls-2" d="m519.78,118.82c.09-10.68-1.78-18.8-5.11-25.01,3.91-5.1,7.82-10.2,11.73-15.3,3.34,6.21,5.21,14.33,5.11,25.01-3.91,5.1-7.82,10.2-11.73,15.3Z"/>
      <path class="cls-2" d="m472.84,180c.09-10.68-1.78-18.8-5.11-25.01,3.91-5.1,7.82-10.2,11.73-15.3,3.34,6.21,5.21,14.33,5.11,25.01-3.91,5.1-7.82,10.2-11.73,15.3Z"/>
      <path class="cls-3" d="m508.04,134.11c.09-10.68-1.78-18.8-5.11-25.01,3.91-5.1,7.82-10.2,11.73-15.3,3.34,6.21,5.21,14.33,5.11,25.01-3.91,5.1-7.82,10.2-11.73,15.3Z"/>
      <path class="cls-2" d="m496.31,149.41c.09-10.68-1.78-18.8-5.11-25.01,3.91-5.1,7.82-10.2,11.73-15.3,3.34,6.21,5.21,14.33,5.11,25.01-3.91,5.1-7.82,10.2-11.73,15.3Z"/>
      <path class="cls-3" d="m484.58,164.7c.09-10.68-1.78-18.8-5.11-25.01,3.91-5.1,7.82-10.2,11.73-15.3,3.34,6.21,5.21,14.33,5.11,25.01-3.91,5.1-7.82,10.2-11.73,15.3Z"/>
    </g>
  </g>
  <g class="cls-6">
    <g>
      <path class="cls-3" d="m138.63,263.66c3.34,6.21,5.21,14.33,5.11,25.01-3.91,5.1-7.82,10.2-11.73,15.3.09-10.68-1.78-18.8-5.11-25.01,3.91-5.1,7.82-10.2,11.73-15.3Z"/>
      <path class="cls-3" d="m185.57,202.48c3.34,6.21,5.21,14.33,5.11,25.01-3.91,5.1-7.82,10.2-11.73,15.3.09-10.68-1.78-18.8-5.11-25.01,3.91-5.1,7.82-10.2,11.73-15.3Z"/>
      <path class="cls-2" d="m150.36,248.36c3.34,6.21,5.21,14.33,5.11,25.01-3.91,5.1-7.82,10.2-11.73,15.3.09-10.68-1.78-18.8-5.11-25.01,3.91-5.1,7.82-10.2,11.73-15.3Z"/>
      <path class="cls-3" d="m162.1,233.07c3.34,6.21,5.21,14.33,5.11,25.01-3.91,5.1-7.82,10.2-11.73,15.3.09-10.68-1.78-18.8-5.11-25.01,3.91-5.1,7.82-10.2,11.73-15.3Z"/>
      <path class="cls-2" d="m173.83,217.77c3.34,6.21,5.21,14.33,5.11,25.01-3.91,5.1-7.82,10.2-11.73,15.3.09-10.68-1.78-18.8-5.11-25.01,3.91-5.1,7.82-10.2,11.73-15.3Z"/>
      <path class="cls-2" d="m124.69,250.15c5.79,3.01,10.6,7.3,13.94,13.51-3.91,5.1-7.82,10.2-11.73,15.3-3.34-6.21-8.15-10.49-13.94-13.51,3.91-5.1,7.82-10.2,11.73-15.3Z"/>
      <path class="cls-2" d="m171.63,188.97c5.79,3.01,10.6,7.3,13.94,13.51-3.91,5.1-7.82,10.2-11.73,15.3-3.34-6.21-8.15-10.49-13.94-13.51,3.91-5.1,7.82-10.2,11.73-15.3Z"/>
      <path class="cls-3" d="m136.43,234.86c5.79,3.01,10.6,7.3,13.94,13.51-3.91,5.1-7.82,10.2-11.73,15.3-3.34-6.21-8.15-10.49-13.94-13.51,3.91-5.1,7.82-10.2,11.73-15.3Z"/>
      <path class="cls-2" d="m148.16,219.56c5.79,3.01,10.6,7.3,13.94,13.51-3.91,5.1-7.82,10.2-11.73,15.3-3.34-6.21-8.15-10.49-13.94-13.51,3.91-5.1,7.82-10.2,11.73-15.3Z"/>
      <path class="cls-3" d="m159.9,204.27c5.79,3.01,10.6,7.3,13.94,13.51-3.91,5.1-7.82,10.2-11.73,15.3-3.34-6.21-8.15-10.49-13.94-13.51,3.91-5.1,7.82-10.2,11.73-15.3Z"/>
      <path class="cls-3" d="m104.88,244.32c7.26,1.09,14.03,2.83,19.82,5.84-3.91,5.1-7.82,10.2-11.73,15.3-5.79-3.01-12.56-4.74-19.82-5.84,3.91-5.1,7.82-10.2,11.73-15.3Z"/>
      <path class="cls-3" d="m151.81,183.13c7.26,1.09,14.03,2.83,19.82,5.84-3.91,5.1-7.82,10.2-11.73,15.3-5.79-3.01-12.56-4.74-19.82-5.84l11.73-15.3Z"/>
      <path class="cls-2" d="m116.61,229.02c7.26,1.09,14.03,2.83,19.82,5.84-3.91,5.1-7.82,10.2-11.73,15.3-5.79-3.01-12.56-4.74-19.82-5.84,3.91-5.1,7.82-10.2,11.73-15.3Z"/>
      <path class="cls-3" d="m128.34,213.72c7.26,1.09,14.03,2.83,19.82,5.84-3.91,5.1-7.82,10.2-11.73,15.3-5.79-3.01-12.56-4.74-19.82-5.84,3.91-5.1,7.82-10.2,11.73-15.3Z"/>
      <path class="cls-2" d="m140.08,198.43c7.26,1.09,14.03,2.83,19.82,5.84-3.91,5.1-7.82,10.2-11.73,15.3-5.79-3.01-12.56-4.74-19.82-5.84,3.91-5.1,7.82-10.2,11.73-15.3Z"/>
      <path class="cls-2" d="m82.12,242.31c7.75.46,15.5.91,22.76,2-3.91,5.1-7.82,10.2-11.73,15.3-7.26-1.09-15.01-1.55-22.76-2,3.91-5.1,7.82-10.2,11.73-15.3Z"/>
      <path class="cls-2" d="m129.05,181.13c7.75.46,15.5.91,22.76,2l-11.73,15.3c-7.26-1.09-15.01-1.55-22.76-2,3.91-5.1,7.82-10.2,11.73-15.3Z"/>
      <path class="cls-3" d="m93.85,227.02c7.75.46,15.5.91,22.76,2-3.91,5.1-7.82,10.2-11.73,15.3-7.26-1.09-15.01-1.55-22.76-2,3.91-5.1,7.82-10.2,11.73-15.3Z"/>
      <path class="cls-2" d="m105.58,211.72c7.75.46,15.5.91,22.76,2-3.91,5.1-7.82,10.2-11.73,15.3-7.26-1.09-15.01-1.55-22.76-2,3.91-5.1,7.82-10.2,11.73-15.3Z"/>
      <path class="cls-3" d="m117.32,196.42c7.75.46,15.5.91,22.76,2-3.91,5.1-7.82,10.2-11.73,15.3-7.26-1.09-15.01-1.55-22.76-2,3.91-5.1,7.82-10.2,11.73-15.3Z"/>
      <path class="cls-3" d="m59.36,240.31c7.26,1.09,15.01,1.55,22.76,2-3.91,5.1-7.82,10.2-11.73,15.3-7.75-.46-15.5-.91-22.76-2,3.91-5.1,7.82-10.2,11.73-15.3Z"/>
      <path class="cls-3" d="m106.29,179.12c7.26,1.09,15.01,1.55,22.76,2-3.91,5.1-7.82,10.2-11.73,15.3-7.75-.46-15.5-.91-22.76-2,3.91-5.1,7.82-10.2,11.73-15.3Z"/>
      <path class="cls-2" d="m71.09,225.01c7.26,1.09,15.01,1.55,22.76,2-3.91,5.1-7.82,10.2-11.73,15.3-7.75-.46-15.5-.91-22.76-2,3.91-5.1,7.82-10.2,11.73-15.3Z"/>
      <path class="cls-3" d="m82.83,209.72c7.26,1.09,15.01,1.55,22.76,2-3.91,5.1-7.82,10.2-11.73,15.3-7.75-.46-15.5-.91-22.76-2,3.91-5.1,7.82-10.2,11.73-15.3Z"/>
      <path class="cls-2" d="m94.56,194.42c7.26,1.09,15.01,1.55,22.76,2-3.91,5.1-7.82,10.2-11.73,15.3-7.75-.46-15.5-.91-22.76-2,3.91-5.1,7.82-10.2,11.73-15.3Z"/>
      <path class="cls-2" d="m39.54,234.47c5.79,3.01,12.56,4.74,19.82,5.84-3.91,5.1-7.82,10.2-11.73,15.3-7.26-1.09-14.03-2.83-19.82-5.84,3.91-5.1,7.82-10.2,11.73-15.3Z"/>
      <path class="cls-2" d="m86.48,173.29c5.79,3.01,12.56,4.74,19.82,5.84-3.91,5.1-7.82,10.2-11.73,15.3-7.26-1.09-14.03-2.83-19.82-5.84,3.91-5.1,7.82-10.2,11.73-15.3Z"/>
      <path class="cls-3" d="m51.27,219.17c5.79,3.01,12.56,4.74,19.82,5.84-3.91,5.1-7.82,10.2-11.73,15.3-7.26-1.09-14.03-2.83-19.82-5.84,3.91-5.1,7.82-10.2,11.73-15.3Z"/>
      <path class="cls-2" d="m63.01,203.88c5.79,3.01,12.56,4.74,19.82,5.84-3.91,5.1-7.82,10.2-11.73,15.3-7.26-1.09-14.03-2.83-19.82-5.84,3.91-5.1,7.82-10.2,11.73-15.3Z"/>
      <path class="cls-3" d="m74.74,188.58c5.79,3.01,12.56,4.74,19.82,5.84-3.91,5.1-7.82,10.2-11.73,15.3-7.26-1.09-14.03-2.83-19.82-5.84,3.91-5.1,7.82-10.2,11.73-15.3Z"/>
      <path class="cls-3" d="m25.6,220.96c3.34,6.21,8.15,10.49,13.94,13.51-3.91,5.1-7.82,10.2-11.73,15.3-5.79-3.01-10.6-7.3-13.94-13.51,3.91-5.1,7.82-10.2,11.73-15.3Z"/>
      <path class="cls-3" d="m72.54,159.78c3.34,6.21,8.15,10.49,13.94,13.51-3.91,5.1-7.82,10.2-11.73,15.3-5.79-3.01-10.6-7.3-13.94-13.51,3.91-5.1,7.82-10.2,11.73-15.3Z"/>
      <path class="cls-2" d="m37.34,205.67c3.34,6.21,8.15,10.49,13.94,13.51-3.91,5.1-7.82,10.2-11.73,15.3-5.79-3.01-10.6-7.3-13.94-13.51,3.91-5.1,7.82-10.2,11.73-15.3Z"/>
      <path class="cls-3" d="m49.07,190.37c3.34,6.21,8.15,10.49,13.94,13.51-3.91,5.1-7.82,10.2-11.73,15.3-5.79-3.01-10.6-7.3-13.94-13.51,3.91-5.1,7.82-10.2,11.73-15.3Z"/>
      <path class="cls-2" d="m60.8,175.08c3.34,6.21,8.15,10.49,13.94,13.51-3.91,5.1-7.82,10.2-11.73,15.3-5.79-3.01-10.6-7.3-13.94-13.51,3.91-5.1,7.82-10.2,11.73-15.3Z"/>
      <path class="cls-2" d="m20.49,195.96c-.09,10.68,1.78,18.8,5.11,25.01-3.91,5.1-7.82,10.2-11.73,15.3-3.34-6.21-5.21-14.33-5.11-25.01,3.91-5.1,7.82-10.2,11.73-15.3Z"/>
      <path class="cls-2" d="m67.42,134.78c-.09,10.68,1.78,18.8,5.11,25.01-3.91,5.1-7.82,10.2-11.73,15.3-3.34-6.21-5.21-14.33-5.11-25.01,3.91-5.1,7.82-10.2,11.73-15.3Z"/>
      <path class="cls-3" d="m32.22,180.66c-.09,10.68,1.78,18.8,5.11,25.01-3.91,5.1-7.82,10.2-11.73,15.3-3.34-6.21-5.21-14.33-5.11-25.01,3.91-5.1,7.82-10.2,11.73-15.3Z"/>
      <path class="cls-2" d="m43.96,165.37c-.09,10.68,1.78,18.8,5.11,25.01-3.91,5.1-7.82,10.2-11.73,15.3-3.34-6.21-5.21-14.33-5.11-25.01,3.91-5.1,7.82-10.2,11.73-15.3Z"/>
      <path class="cls-3" d="m55.69,150.07c-.09,10.68,1.78,18.8,5.11,25.01-3.91,5.1-7.82,10.2-11.73,15.3-3.34-6.21-5.21-14.33-5.11-25.01,3.91-5.1,7.82-10.2,11.73-15.3Z"/>
    </g>
  </g>
</svg>